<?xml version="1.0" encoding="iso-8859-1"?>
<!-- Generator: Adobe Illustrator 16.0.0, SVG Export Plug-In . SVG Version: 6.00 Build 0)  -->
<!DOCTYPE svg PUBLIC "-//W3C//DTD SVG 1.1//EN" "http://www.w3.org/Graphics/SVG/1.1/DTD/svg11.dtd">
<svg version="1.1" id="Capa_1" xmlns="http://www.w3.org/2000/svg" xmlns:xlink="http://www.w3.org/1999/xlink" x="0px" y="0px"
	 width="48.999px" height="49px" viewBox="0 0 48.999 49" style="enable-background:new 0 0 48.999 49;" xml:space="preserve">
<g>
	<path d="M40.215,26.977c-0.367-0.396-0.609-0.897-0.681-1.459c-0.017-0.112-0.033-0.22-0.033-0.334
		c0-0.526,0.158-1.017,0.426-1.431c0.23-0.353,0.544-0.641,0.912-0.85c0.077-0.043,0.149-0.089,0.229-0.125
		c0.326-0.144,0.684-0.229,1.062-0.229c0.1,0,0.192,0.019,0.292,0.028c0.589,0.065,1.119,0.317,1.526,0.708
		c0.5,0.48,0.812,1.15,0.812,1.896c0,0.105-0.021,0.209-0.029,0.311c-0.157,1.303-1.256,2.32-2.602,2.32
		C41.372,27.814,40.693,27.492,40.215,26.977z M8.162,22.906c-0.075-0.043-0.149-0.089-0.229-0.125
		c-0.326-0.146-0.683-0.229-1.061-0.229c-0.1,0-0.194,0.019-0.291,0.029c-0.59,0.065-1.121,0.317-1.527,0.707
		c-0.5,0.48-0.814,1.15-0.814,1.896c0,0.106,0.021,0.209,0.032,0.313c0.157,1.301,1.256,2.316,2.601,2.316
		c0.757,0,1.435-0.326,1.915-0.841c0.368-0.394,0.609-0.897,0.681-1.458c0.015-0.109,0.035-0.221,0.035-0.334
		c0-0.523-0.16-1.016-0.427-1.429C8.844,23.402,8.529,23.115,8.162,22.906z M1.351,23.763c-0.332-0.546-0.534-1.181-0.534-1.867
		c0-1.968,1.576-3.563,3.532-3.61c0.208-0.192,0.426-0.38,0.651-0.563V9.406C5,6.974,7.488,5.07,10.663,5.07h27.673
		c3.176,0,5.662,1.904,5.662,4.336v8.316c0.225,0.185,0.443,0.37,0.65,0.563c1.957,0.047,3.533,1.643,3.533,3.61
		c0,0.686-0.205,1.32-0.535,1.866c0.026,0.238,0.061,0.475,0.061,0.716v5.969c0,0.29-0.234,0.524-0.523,0.524h-10.07v-0.524v-0.528
		v-2.688V25.65v-1.576v-3.89c0-2.066-2.506-3.684-5.706-3.684H17.591c-3.201,0-5.707,1.618-5.707,3.684v3.89v1.576v1.578v2.689
		v0.527v0.523H1.814c-0.292,0-0.526-0.233-0.526-0.523v-5.969C1.29,24.236,1.327,24,1.351,23.763z M39.042,27.177
		c0.655,1.016,1.792,1.691,3.087,1.691c1.998,0,3.62-1.603,3.674-3.588c0-0.031,0.012-0.064,0.012-0.098
		c0-1.345-0.734-2.512-1.815-3.154c-0.472-0.279-1.007-0.452-1.578-0.497c-0.097-0.009-0.19-0.029-0.292-0.029
		c-0.408,0-0.794,0.082-1.166,0.206c-0.04,0.015-0.083,0.023-0.125,0.038c-1.044,0.393-1.852,1.244-2.199,2.311
		c-0.115,0.357-0.195,0.732-0.195,1.126c0,0.157,0.029,0.308,0.047,0.459C38.562,26.201,38.747,26.727,39.042,27.177z
		 M10.358,24.055c-0.347-1.065-1.156-1.916-2.2-2.31c-0.04-0.015-0.082-0.025-0.124-0.039c-0.369-0.123-0.756-0.205-1.165-0.205
		c-0.1,0-0.194,0.021-0.291,0.028C6.005,21.574,5.471,21.747,5,22.026c-1.082,0.643-1.815,1.811-1.815,3.155
		c0,0.033,0.009,0.062,0.009,0.1c0.054,1.985,1.678,3.584,3.675,3.584c1.295,0,2.431-0.676,3.087-1.689
		c0.294-0.451,0.478-0.975,0.548-1.534c0.021-0.153,0.047-0.302,0.047-0.459C10.553,24.789,10.474,24.414,10.358,24.055z
		 M6.58,11.94c0,0.881,0.626,1.658,1.578,2.163c0.653,0.345,1.458,0.56,2.343,0.583c2.939-1.081,6.388-1.715,10.087-1.715h7.823
		c3.698,0,7.146,0.634,10.085,1.715c0.885-0.023,1.689-0.238,2.343-0.583c0.955-0.506,1.578-1.282,1.578-2.163V9.406
		c0-1.523-1.826-2.758-4.081-2.758H10.663c-2.254,0-4.083,1.234-4.083,2.758V11.94z M12.938,24.074v1.576v1.578v2.689v0.527v0.523
		v0.134h1.236v-0.134v-0.523v-0.527v-2.689V25.65v-1.576v-5.642c-0.757,0.47-1.236,1.084-1.236,1.752V24.074z M34.825,24.074v1.576
		v1.578v2.689v0.527v0.523v0.134h1.235v-0.134v-0.523v-0.527v-2.689V25.65v-1.576v-3.89c0-0.668-0.479-1.282-1.235-1.752V24.074z
		 M25.025,25.653v1.578v2.688v0.525v0.527v0.13h1.396v-0.13v-0.527v-0.525v-2.688v-1.578v-1.579v-6.521h-1.396v6.521V25.653z
		 M27.477,25.653v1.578v2.688v0.525v0.527v0.13h1.396v-0.13v-0.527v-0.525v-2.688v-1.578v-1.579v-6.521h-1.396v6.521V25.653z
		 M29.925,25.653v1.578v2.688v0.525v0.527v0.13h1.397v-0.13v-0.527v-0.525v-2.688v-1.578v-1.579v-6.521h-1.397v6.521V25.653z
		 M32.375,25.653v1.578v2.688v0.525v0.527v0.13h1.396v-0.13v-0.527v-0.525v-2.688v-1.578v-1.579v-6.131
		c-0.431-0.149-0.896-0.266-1.396-0.326v6.457V25.653z M17.676,25.653v1.578v2.688v0.525v0.527v0.13h1.398v-0.13v-0.527v-0.525
		v-2.688v-1.578v-1.579v-6.521h-1.398v6.521V25.653z M22.575,25.653v1.578v2.688v0.525v0.527v0.13h1.397v-0.13v-0.527v-0.525v-2.688
		v-1.578v-1.579v-6.521h-1.397v6.521V25.653z M20.126,25.653v1.578v2.688v0.525v0.527v0.13h1.397v-0.13v-0.527v-0.525v-2.688v-1.578
		v-1.579v-6.521h-1.397v6.521V25.653z M15.227,25.653v1.578v2.688v0.525v0.527v0.13h1.397v-0.13v-0.527v-0.525v-2.688v-1.578v-1.579
		v-6.457c-0.501,0.063-0.967,0.177-1.397,0.326v6.131V25.653z M48.475,31.894H0.526C0.235,31.894,0,32.128,0,32.419v2.105
		c0,0.29,0.236,0.523,0.526,0.523h47.947c0.291,0,0.526-0.235,0.526-0.523v-2.105C49,32.128,48.766,31.894,48.475,31.894z
		 M10.093,35.908H2.725c-0.291,0-0.525,0.233-0.525,0.523v4.867c0,1.447,1.179,2.631,2.631,2.631h3.158
		c1.452,0,2.632-1.178,2.632-2.631v-4.867C10.621,36.142,10.384,35.908,10.093,35.908z M46.273,35.908h-7.366
		c-0.291,0-0.527,0.233-0.527,0.523v4.867c0,1.447,1.181,2.631,2.634,2.631h3.155c1.45,0,2.634-1.178,2.634-2.631v-4.867
		C46.8,36.142,46.564,35.908,46.273,35.908z"/>
</g>
<g>
</g>
<g>
</g>
<g>
</g>
<g>
</g>
<g>
</g>
<g>
</g>
<g>
</g>
<g>
</g>
<g>
</g>
<g>
</g>
<g>
</g>
<g>
</g>
<g>
</g>
<g>
</g>
<g>
</g>
</svg>
